<svg id="undraw_website_setup_re_d4y9" xmlns="http://www.w3.org/2000/svg" width="676.871" height="468.852" viewBox="0 0 776.871 568.852">
  <path id="Tracé_52" data-name="Tracé 52" d="M716.621,734.168v-72.34S744.813,713.114,716.621,734.168Z" transform="translate(-220.809 -165.316)" fill="#f1f1f1"/>
  <path id="Tracé_53" data-name="Tracé 53" d="M718.362,734.156l-53.29-48.921S721.918,699.15,718.362,734.156Z" transform="translate(-218.739 -165.316)" fill="#f1f1f1"/>
  <rect id="Rectangle_62" data-name="Rectangle 62" width="776.512" height="399.454" transform="translate(0.359 23.079)" fill="#e5e5e5"/>
  <rect id="Rectangle_75" data-name="Rectangle 75" width="728.369" height="333.277" transform="translate(24.431 57.333)" fill="#fff"/>
  <rect id="Rectangle_80" data-name="Rectangle 80" width="776.512" height="35.763" fill="#6c63ff"/>
  <circle id="Ellipse_90" data-name="Ellipse 90" cx="6.628" cy="6.628" r="6.628" transform="translate(19.948 11.187)" fill="#fff"/>
  <circle id="Ellipse_91" data-name="Ellipse 91" cx="6.628" cy="6.628" r="6.628" transform="translate(45.107 11.187)" fill="#fff"/>
  <circle id="Ellipse_92" data-name="Ellipse 92" cx="6.628" cy="6.628" r="6.628" transform="translate(70.268 11.187)" fill="#fff"/>
  <path id="Path_680" data-name="Path 680" d="M332.911,298.519a3.268,3.268,0,1,0,0,6.536H422.2a3.268,3.268,0,0,0,0-6.536Z" transform="translate(-191.679 -165.316)" fill="#3f3d56"/>
  <path id="Path_680-2" data-name="Path 680" d="M282.411,343.519a3.268,3.268,0,1,0,0,6.536H472.7a3.268,3.268,0,0,0,0-6.536Z" transform="translate(-178.451 -165.316)" fill="#ccc"/>
  <path id="Path_680-3" data-name="Path 680" d="M282.411,369.519a3.268,3.268,0,1,0,0,6.536H472.7a3.268,3.268,0,0,0,0-6.536Z" transform="translate(-178.451 -165.316)" fill="#ccc"/>
  <path id="Path_680-4" data-name="Path 680" d="M282.411,395.519a3.268,3.268,0,1,0,0,6.536H472.7a3.268,3.268,0,0,0,0-6.536Z" transform="translate(-178.451 -165.316)" fill="#ccc"/>
  <path id="Path_680-5" data-name="Path 680" d="M282.411,421.519a3.268,3.268,0,1,0,0,6.536H472.7a3.268,3.268,0,0,0,0-6.536Z" transform="translate(-178.451 -165.316)" fill="#ccc"/>
  <path id="Path_680-6" data-name="Path 680" d="M282.411,447.519a3.268,3.268,0,1,0,0,6.536H472.7a3.268,3.268,0,0,0,0-6.536Z" transform="translate(-178.451 -165.316)" fill="#ccc"/>
  <path id="Path_680-7" data-name="Path 680" d="M282.411,473.519a3.268,3.268,0,1,0,0,6.536H472.7a3.268,3.268,0,0,0,0-6.536Z" transform="translate(-178.451 -165.316)" fill="#ccc"/>
  <path id="Tracé_54" data-name="Tracé 54" d="M910.161,481.454h-288.1a7.271,7.271,0,0,1-7.263-7.263V304.719a7.271,7.271,0,0,1,7.263-7.263h288.1a7.271,7.271,0,0,1,7.263,7.263V474.191A7.271,7.271,0,0,1,910.161,481.454Z" transform="translate(-270.774 -165.316)" fill="#f1f1f1"/>
  <path id="Tracé_55" data-name="Tracé 55" d="M948.061,520.216h-288.1a7.271,7.271,0,0,1-7.263-7.263V343.481a7.271,7.271,0,0,1,7.263-7.263h288.1a7.271,7.271,0,0,1,7.263,7.263V512.953a7.271,7.271,0,0,1-7.263,7.263Z" transform="translate(-243.75 -165.316)" fill="#fff"/>
  <path id="Tracé_56" data-name="Tracé 56" d="M948.06,522.688h-288.1a9.746,9.746,0,0,1-9.735-9.735V343.481a9.746,9.746,0,0,1,9.735-9.735h288.1a9.746,9.746,0,0,1,9.735,9.735V512.953A9.746,9.746,0,0,1,948.06,522.688Zm-288.1-184a4.8,4.8,0,0,0-4.792,4.792V512.953a4.8,4.8,0,0,0,4.792,4.792h288.1a4.8,4.8,0,0,0,4.792-4.792V343.481a4.8,4.8,0,0,0-4.792-4.792Z" transform="translate(-243.75 -165.316)" fill="#3f3d56"/>
  <circle id="Ellipse_20" data-name="Ellipse 20" cx="25" cy="25" r="25" transform="translate(550.697 260.43)" fill="#ff6583"/>
  <path id="Tracé_57" data-name="Tracé 57" d="M851.849,426.7a16.1,16.1,0,0,0-23.025-.411l-81.08,81.08c-10.386,10.435-21.228-5.525-28.156-11.961-16.66-16.477-34.656,14.419-45.854,23.267H934.285v-3.317Z" transform="translate(-243.75 -165.316)" fill="#6c63ff"/>
  <path id="Tracé_58" data-name="Tracé 58" d="M530.681,524.977,526.3,464.223l7.874-56.932-22.362-1.51-4.414,62.889,12.475,59.14a8.8,8.8,0,1,0,10.812-2.833Z" transform="translate(-204.847 -165.316)" fill="#9f616a"/>
  <path id="Tracé_59" data-name="Tracé 59" d="M508.955,413.964l5.251-22.726a17.5,17.5,0,0,1,34.435,5.9l-2.892,25.679Z" transform="translate(-205.349 -165.316)" fill="#cbcbcb"/>
  <path id="Tracé_60" data-name="Tracé 60" d="M371.9,557.6h10.542l5.015-40.664H371.9Z" transform="translate(-29.379)" fill="#9f616a"/>
  <path id="Tracé_61" data-name="Tracé 61" d="M547.665,719.471h20.763a13.232,13.232,0,0,1,13.231,13.23v.431H547.666Z" transform="translate(-208.283 -165.316)" fill="#2f2e41"/>
  <path id="Tracé_62" data-name="Tracé 62" d="M424.424,557.252l10.135-2.9-6.375-40.473-14.958,4.285Z" transform="translate(-32.873)" fill="#9f616a"/>
  <path id="Tracé_63" data-name="Tracé 63" d="M599.342,720l19.959-5.717h0a13.232,13.232,0,0,1,16.363,9.076l.118.413L603.1,733.133Z" transform="translate(-212.562 -165.316)" fill="#2f2e41"/>
  <path id="Tracé_64" data-name="Tracé 64" d="M544.656,708.154l4.9-123.178-12.736-55.744c-17.139-28.735,1.351-74.57,1.54-75.03l.069-.168.18-.025,44.832-6.074.63,1.445A214.691,214.691,0,0,1,598.022,576.9l-4.666,23.866,23.061,93.11-21.826,10.913-16.746-43.424-11.32,44.429Z" transform="translate(-208.805 -165.316)" fill="#2f2e41"/>
  <path id="Tracé_65" data-name="Tracé 65" d="M532.459,465.626l-14.626-42.855c-9.092-16.012-3.325-30.228,3.114-39.333,6.954-9.832,7.371-15.347,7.464-15.408l.074-.049L547.7,367.4l17.784,18.071c1.119-.437,10.568,22.849,9.767,24.02l12.421,40.152Z" transform="translate(-206.921 -165.316)" fill="#cbcbcb"/>
  <path id="Tracé_66" data-name="Tracé 66" d="M650.886,473.038l-48.18-37.268-37.155-43.85-16.045,15.65,43.9,45.247,52.376,30.164a8.8,8.8,0,1,0,5.1-9.944Z" transform="translate(-211.711 -165.316)" fill="#9f616a"/>
  <path id="Tracé_67" data-name="Tracé 67" d="M544.947,423.426l-13.425-19.074a17.5,17.5,0,0,1,27.368-21.716l17.2,19.287Z" transform="translate(-207.211 -165.316)" fill="#cbcbcb"/>
  <circle id="Ellipse_21" data-name="Ellipse 21" cx="22.819" cy="22.819" r="22.819" transform="translate(307.136 151.19)" fill="#9f616a"/>
  <path id="Tracé_68" data-name="Tracé 68" d="M559.036,327.749H522.8V311.955c7.953-3.16,15.735-5.847,20.44,0a15.794,15.794,0,0,1,15.794,15.794Z" transform="translate(-206.352 -165.316)" fill="#2f2e41"/>
  <path id="Tracé_69" data-name="Tracé 69" d="M527.8,308.168c-33.2-.907-26.912,53.786-26.912,53.786s6.263.828,9.121,1.315l3.452-1.944,3.714,2.436c1.705.009,3.5-.025,5.354-.059l1.7-3.506,3.8,3.443c6.911.01,25.666.2,25.666.2S564.993,309.184,527.8,308.168Z" transform="translate(-205.156 -165.316)" fill="#2f2e41"/>
  <path id="Tracé_70" data-name="Tracé 70" d="M796.633,733.746h-381a1,1,0,1,1,0-2h381a1,1,0,0,1,0,2Z" transform="translate(-212.039 -165.316)" fill="#cbcbcb"/>
</svg>
